%TF.GenerationSoftware,KiCad,Pcbnew,9.0.7*%
%TF.CreationDate,2026-04-27T19:49:58+07:00*%
%TF.ProjectId,Try,5472792e-6b69-4636-9164-5f7063625858,rev?*%
%TF.SameCoordinates,Original*%
%TF.FileFunction,Copper,L1,Top*%
%TF.FilePolarity,Positive*%
%FSLAX46Y46*%
G04 Gerber Fmt 4.6, Leading zero omitted, Abs format (unit mm)*
G04 Created by KiCad (PCBNEW 9.0.7) date 2026-04-27 19:49:58*
%MOMM*%
%LPD*%
G01*
G04 APERTURE LIST*
%TA.AperFunction,ComponentPad*%
%ADD10C,1.700000*%
%TD*%
%TA.AperFunction,ComponentPad*%
%ADD11R,1.700000X1.700000*%
%TD*%
%TA.AperFunction,ComponentPad*%
%ADD12R,1.500000X1.500000*%
%TD*%
%TA.AperFunction,ComponentPad*%
%ADD13C,1.500000*%
%TD*%
%TA.AperFunction,Conductor*%
%ADD14C,1.000000*%
%TD*%
%TA.AperFunction,Conductor*%
%ADD15C,0.250000*%
%TD*%
%TA.AperFunction,Conductor*%
%ADD16C,0.200000*%
%TD*%
G04 APERTURE END LIST*
D10*
%TO.P,J2,G,Pin_1*%
%TO.N,GND*%
X147120000Y-96700000D03*
X134420000Y-96700000D03*
%TO.P,J2,K,Pin_4*%
%TO.N,Net-(J2-Pin_4)*%
X139500000Y-96700000D03*
%TO.P,J2,R,Pin_2*%
%TO.N,Net-(J2-Pin_2)*%
X144580000Y-96700000D03*
D11*
%TO.P,J2,S,Pin_7*%
%TO.N,unconnected-(J2-Pin_7-PadS)*%
X131880000Y-96700000D03*
D10*
%TO.P,J2,T,Pin_3*%
%TO.N,Net-(J2-Pin_3)*%
X142040000Y-96700000D03*
%TO.P,J2,V,Pin_5*%
%TO.N,+5V*%
X136960000Y-96700000D03*
%TD*%
D12*
%TO.P,U2,1,GND*%
%TO.N,GND*%
X122140000Y-126000000D03*
D13*
%TO.P,U2,2,3V3*%
%TO.N,Net-(U2-3V3-Pad2)*%
X124680000Y-126000000D03*
%TO.P,U2,3,3V3*%
X127220000Y-126000000D03*
%TO.P,U2,4,IO2*%
%TO.N,Net-(SW1-B)*%
X129760000Y-126000000D03*
%TO.P,U2,5,IO3*%
%TO.N,Net-(SW2-B)*%
X132300000Y-126000000D03*
%TO.P,U2,6,GND*%
%TO.N,GND*%
X134840000Y-126000000D03*
%TO.P,U2,7,RST*%
%TO.N,unconnected-(U2-RST-Pad7)*%
X137380000Y-126000000D03*
%TO.P,U2,8,GND*%
%TO.N,GND*%
X139920000Y-126000000D03*
%TO.P,U2,9,IO0*%
%TO.N,unconnected-(U2-IO0-Pad9)*%
X142460000Y-126000000D03*
%TO.P,U2,10,IO1*%
%TO.N,Net-(SW_MG3-B)*%
X145000000Y-126000000D03*
%TO.P,U2,11,IO10*%
%TO.N,Net-(SW_MG4-B)*%
X147540000Y-126000000D03*
%TO.P,U2,12,GND*%
%TO.N,GND*%
X150080000Y-126000000D03*
%TO.P,U2,13,5V*%
%TO.N,+5V*%
X152620000Y-126000000D03*
%TO.P,U2,14,5V*%
X155160000Y-126000000D03*
%TO.P,U2,15,GND*%
%TO.N,GND*%
X157700000Y-126000000D03*
%TO.P,U2,16,GND*%
X157700000Y-103140000D03*
%TO.P,U2,17,IO19*%
%TO.N,Net-(J2-Pin_2)*%
X155160000Y-103140000D03*
%TO.P,U2,18,IO18*%
%TO.N,Net-(J2-Pin_3)*%
X152620000Y-103140000D03*
%TO.P,U2,19,GND*%
%TO.N,GND*%
X150080000Y-103140000D03*
%TO.P,U2,20,IO4*%
%TO.N,Net-(J2-Pin_4)*%
X147540000Y-103140000D03*
%TO.P,U2,21,IO5*%
%TO.N,unconnected-(U2-IO5-Pad21)*%
X145000000Y-103140000D03*
%TO.P,U2,22,IO6*%
%TO.N,unconnected-(U2-IO6-Pad22)*%
X142460000Y-103140000D03*
%TO.P,U2,23,IO7*%
%TO.N,unconnected-(U2-IO7-Pad23)*%
X139920000Y-103140000D03*
%TO.P,U2,24,GND*%
%TO.N,GND*%
X137380000Y-103140000D03*
%TO.P,U2,25,IO8*%
%TO.N,unconnected-(U2-IO8-Pad25)*%
X134840000Y-103140000D03*
%TO.P,U2,26,IO9*%
%TO.N,unconnected-(U2-IO9-Pad26)*%
X132300000Y-103140000D03*
%TO.P,U2,27,GND*%
%TO.N,GND*%
X129760000Y-103140000D03*
%TO.P,U2,28,RX*%
%TO.N,unconnected-(U2-RX-Pad28)*%
X127220000Y-103140000D03*
%TO.P,U2,29,TX*%
%TO.N,unconnected-(U2-TX-Pad29)*%
X124680000Y-103140000D03*
%TO.P,U2,30,GND*%
%TO.N,GND*%
X122140000Y-103140000D03*
%TD*%
D11*
%TO.P,SW_MG4,1,A*%
%TO.N,GND*%
X155100000Y-141615000D03*
D10*
%TO.P,SW_MG4,2,B*%
%TO.N,Net-(SW_MG4-B)*%
X157640000Y-141615000D03*
%TD*%
D11*
%TO.P,SW_MG3,1,A*%
%TO.N,GND*%
X143640000Y-141640000D03*
D10*
%TO.P,SW_MG3,2,B*%
%TO.N,Net-(SW_MG3-B)*%
X146180000Y-141640000D03*
%TD*%
D11*
%TO.P,SW2,1,A*%
%TO.N,GND*%
X132140000Y-141640000D03*
D10*
%TO.P,SW2,2,B*%
%TO.N,Net-(SW2-B)*%
X134680000Y-141640000D03*
%TD*%
%TO.P,SW1,2,B*%
%TO.N,Net-(SW1-B)*%
X123140000Y-141640000D03*
D11*
%TO.P,SW1,1,A*%
%TO.N,GND*%
X120600000Y-141640000D03*
%TD*%
D10*
%TO.P,Power_Source1,1,+*%
%TO.N,+5V*%
X98000000Y-113960000D03*
%TO.P,Power_Source1,2,-*%
%TO.N,GND*%
X98000000Y-116500000D03*
%TD*%
%TO.P,Solar_Source,+,-*%
%TO.N,N/C*%
X180975000Y-114000000D03*
%TO.P,Solar_Source,-,+*%
X180975000Y-116540000D03*
%TD*%
D14*
%TO.N,+5V*%
X152620000Y-126000000D02*
X155160000Y-126000000D01*
D15*
%TO.N,Net-(U2-3V3-Pad2)*%
X124680000Y-126000000D02*
X127220000Y-126000000D01*
D16*
%TO.N,Net-(J2-Pin_4)*%
X147000000Y-101000000D02*
X147540000Y-101540000D01*
X143800000Y-101000000D02*
X147000000Y-101000000D01*
X147540000Y-101540000D02*
X147540000Y-103140000D01*
X139500000Y-96700000D02*
X143800000Y-101000000D01*
%TO.N,Net-(J2-Pin_3)*%
X145340000Y-100000000D02*
X142040000Y-96700000D01*
X151500000Y-100000000D02*
X145340000Y-100000000D01*
X152620000Y-101120000D02*
X151500000Y-100000000D01*
X152620000Y-103140000D02*
X152620000Y-101120000D01*
%TO.N,Net-(J2-Pin_2)*%
X155160000Y-101160000D02*
X155160000Y-103140000D01*
X153000000Y-99000000D02*
X155160000Y-101160000D01*
X146880000Y-99000000D02*
X153000000Y-99000000D01*
X144580000Y-96700000D02*
X146880000Y-99000000D01*
D14*
%TO.N,+5V*%
X152620000Y-122120000D02*
X152620000Y-126000000D01*
X144460000Y-113960000D02*
X152620000Y-122120000D01*
X98000000Y-113960000D02*
X144460000Y-113960000D01*
D16*
%TO.N,Net-(SW1-B)*%
X129760000Y-131240000D02*
X129760000Y-126000000D01*
X123140000Y-137860000D02*
X129760000Y-131240000D01*
X123140000Y-141640000D02*
X123140000Y-137860000D01*
%TO.N,Net-(SW_MG3-B)*%
X145000000Y-138500000D02*
X145000000Y-126000000D01*
X146180000Y-139680000D02*
X145000000Y-138500000D01*
X146180000Y-141640000D02*
X146180000Y-139680000D01*
%TO.N,GND*%
X117000000Y-127000000D02*
X118000000Y-126000000D01*
X118000000Y-126000000D02*
X122140000Y-126000000D01*
X117000000Y-141500000D02*
X117000000Y-127000000D01*
%TO.N,Net-(SW_MG4-B)*%
X147540000Y-134460000D02*
X147540000Y-126000000D01*
X147500000Y-134500000D02*
X147540000Y-134460000D01*
X156000000Y-138000000D02*
X151000000Y-138000000D01*
X151000000Y-138000000D02*
X147500000Y-134500000D01*
X157640000Y-141615000D02*
X157640000Y-139640000D01*
X157640000Y-139640000D02*
X156000000Y-138000000D01*
D14*
%TO.N,GND*%
X133000000Y-92500000D02*
X134420000Y-93920000D01*
X108500000Y-92500000D02*
X133000000Y-92500000D01*
X92500000Y-114500000D02*
X92500000Y-108500000D01*
X94500000Y-116500000D02*
X92500000Y-114500000D01*
X92500000Y-108500000D02*
X108500000Y-92500000D01*
D16*
X120500000Y-146500000D02*
X117000000Y-143000000D01*
D14*
X90000000Y-105500000D02*
X105500000Y-90000000D01*
X94500000Y-116500000D02*
X98000000Y-116500000D01*
X105500000Y-90000000D02*
X149000000Y-90000000D01*
X147120000Y-96700000D02*
X151260000Y-96700000D01*
D16*
X155100000Y-141615000D02*
X153885000Y-141615000D01*
D14*
X153200000Y-96700000D02*
X151260000Y-96700000D01*
X90000000Y-112000000D02*
X90000000Y-105500000D01*
D16*
X132140000Y-141640000D02*
X130860000Y-141640000D01*
D14*
X94500000Y-116500000D02*
X90000000Y-112000000D01*
D16*
X130860000Y-141640000D02*
X126000000Y-146500000D01*
X153885000Y-141615000D02*
X149000000Y-146500000D01*
X137500000Y-146500000D02*
X126000000Y-146500000D01*
D14*
X157700000Y-98700000D02*
X157700000Y-103140000D01*
X157700000Y-103140000D02*
X157700000Y-101200000D01*
X157700000Y-101200000D02*
X153200000Y-96700000D01*
D16*
X143640000Y-141640000D02*
X142360000Y-141640000D01*
X126000000Y-146500000D02*
X120500000Y-146500000D01*
D14*
X149000000Y-90000000D02*
X157700000Y-98700000D01*
D16*
X120600000Y-141640000D02*
X117140000Y-141640000D01*
X117140000Y-141640000D02*
X117000000Y-141500000D01*
X117000000Y-143000000D02*
X117000000Y-141500000D01*
X142360000Y-141640000D02*
X137500000Y-146500000D01*
X149000000Y-146500000D02*
X137500000Y-146500000D01*
D14*
%TO.N,+5V*%
X119500000Y-100000000D02*
X136000000Y-100000000D01*
X112000000Y-107500000D02*
X119500000Y-100000000D01*
X104460000Y-107500000D02*
X112000000Y-107500000D01*
X136000000Y-100000000D02*
X137000000Y-99000000D01*
D16*
X137000000Y-99000000D02*
X136960000Y-98960000D01*
D14*
X136960000Y-98960000D02*
X136960000Y-96700000D01*
X98000000Y-113960000D02*
X104460000Y-107500000D01*
D16*
%TO.N,Net-(SW2-B)*%
X132300000Y-126000000D02*
X132300000Y-134800000D01*
X132300000Y-134800000D02*
X134680000Y-137180000D01*
X134680000Y-137180000D02*
X134680000Y-141640000D01*
D14*
%TO.N,GND*%
X134420000Y-93920000D02*
X134420000Y-96700000D01*
%TD*%
M02*
