M48
; DRILL file {KiCad 9.0.7} date 2026-04-27T19:41:07+0700
; FORMAT={-:-/ absolute / metric / decimal}
; #@! TF.CreationDate,2026-04-27T19:41:07+07:00
; #@! TF.GenerationSoftware,Kicad,Pcbnew,9.0.7
; #@! TF.FileFunction,Plated,1,2,PTH
FMAT,2
METRIC
; #@! TA.AperFunction,Plated,PTH,ComponentDrill
T1C0.900
; #@! TA.AperFunction,Plated,PTH,ComponentDrill
T2C1.000
%
G90
G05
T1
X122.14Y-103.14
X122.14Y-126.0
X124.68Y-103.14
X124.68Y-126.0
X127.22Y-103.14
X127.22Y-126.0
X129.76Y-103.14
X129.76Y-126.0
X132.3Y-103.14
X132.3Y-126.0
X134.84Y-103.14
X134.84Y-126.0
X137.38Y-103.14
X137.38Y-126.0
X139.92Y-103.14
X139.92Y-126.0
X142.46Y-103.14
X142.46Y-126.0
X145.0Y-103.14
X145.0Y-126.0
X147.54Y-103.14
X147.54Y-126.0
X150.08Y-103.14
X150.08Y-126.0
X152.62Y-103.14
X152.62Y-126.0
X155.16Y-103.14
X155.16Y-126.0
X157.7Y-103.14
X157.7Y-126.0
T2
X98.0Y-113.96
X98.0Y-116.5
X120.6Y-141.64
X123.14Y-141.64
X131.88Y-96.7
X132.14Y-141.64
X134.42Y-96.7
X134.68Y-141.64
X136.96Y-96.7
X139.5Y-96.7
X142.04Y-96.7
X143.64Y-141.64
X144.58Y-96.7
X146.18Y-141.64
X147.12Y-96.7
X155.1Y-141.615
X157.64Y-141.615
X180.975Y-114.0
X180.975Y-116.54
M30
