%TF.GenerationSoftware,KiCad,Pcbnew,9.0.7*%
%TF.CreationDate,2026-04-27T19:37:05+07:00*%
%TF.ProjectId,Try,5472792e-6b69-4636-9164-5f7063625858,rev?*%
%TF.SameCoordinates,Original*%
%TF.FileFunction,Legend,Top*%
%TF.FilePolarity,Positive*%
%FSLAX46Y46*%
G04 Gerber Fmt 4.6, Leading zero omitted, Abs format (unit mm)*
G04 Created by KiCad (PCBNEW 9.0.7) date 2026-04-27 19:37:05*
%MOMM*%
%LPD*%
G01*
G04 APERTURE LIST*
%ADD10C,0.150000*%
%ADD11C,0.120000*%
G04 APERTURE END LIST*
D10*
X92261904Y-141364132D02*
X92738094Y-141364132D01*
X92166666Y-141649847D02*
X92499999Y-140649847D01*
X92499999Y-140649847D02*
X92833332Y-141649847D01*
X93166666Y-141649847D02*
X93166666Y-140649847D01*
X93595237Y-141649847D02*
X93595237Y-141126037D01*
X93595237Y-141126037D02*
X93547618Y-141030799D01*
X93547618Y-141030799D02*
X93452380Y-140983180D01*
X93452380Y-140983180D02*
X93309523Y-140983180D01*
X93309523Y-140983180D02*
X93214285Y-141030799D01*
X93214285Y-141030799D02*
X93166666Y-141078418D01*
X94071428Y-141649847D02*
X94071428Y-140983180D01*
X94071428Y-141078418D02*
X94119047Y-141030799D01*
X94119047Y-141030799D02*
X94214285Y-140983180D01*
X94214285Y-140983180D02*
X94357142Y-140983180D01*
X94357142Y-140983180D02*
X94452380Y-141030799D01*
X94452380Y-141030799D02*
X94499999Y-141126037D01*
X94499999Y-141126037D02*
X94499999Y-141649847D01*
X94499999Y-141126037D02*
X94547618Y-141030799D01*
X94547618Y-141030799D02*
X94642856Y-140983180D01*
X94642856Y-140983180D02*
X94785713Y-140983180D01*
X94785713Y-140983180D02*
X94880952Y-141030799D01*
X94880952Y-141030799D02*
X94928571Y-141126037D01*
X94928571Y-141126037D02*
X94928571Y-141649847D01*
X95785713Y-141602228D02*
X95690475Y-141649847D01*
X95690475Y-141649847D02*
X95499999Y-141649847D01*
X95499999Y-141649847D02*
X95404761Y-141602228D01*
X95404761Y-141602228D02*
X95357142Y-141506989D01*
X95357142Y-141506989D02*
X95357142Y-141126037D01*
X95357142Y-141126037D02*
X95404761Y-141030799D01*
X95404761Y-141030799D02*
X95499999Y-140983180D01*
X95499999Y-140983180D02*
X95690475Y-140983180D01*
X95690475Y-140983180D02*
X95785713Y-141030799D01*
X95785713Y-141030799D02*
X95833332Y-141126037D01*
X95833332Y-141126037D02*
X95833332Y-141221275D01*
X95833332Y-141221275D02*
X95357142Y-141316513D01*
X96690475Y-141649847D02*
X96690475Y-140649847D01*
X96690475Y-141602228D02*
X96595237Y-141649847D01*
X96595237Y-141649847D02*
X96404761Y-141649847D01*
X96404761Y-141649847D02*
X96309523Y-141602228D01*
X96309523Y-141602228D02*
X96261904Y-141554608D01*
X96261904Y-141554608D02*
X96214285Y-141459370D01*
X96214285Y-141459370D02*
X96214285Y-141173656D01*
X96214285Y-141173656D02*
X96261904Y-141078418D01*
X96261904Y-141078418D02*
X96309523Y-141030799D01*
X96309523Y-141030799D02*
X96404761Y-140983180D01*
X96404761Y-140983180D02*
X96595237Y-140983180D01*
X96595237Y-140983180D02*
X96690475Y-141030799D01*
X98738095Y-141649847D02*
X98690476Y-141649847D01*
X98690476Y-141649847D02*
X98595237Y-141602228D01*
X98595237Y-141602228D02*
X98452380Y-141459370D01*
X98452380Y-141459370D02*
X98214285Y-141173656D01*
X98214285Y-141173656D02*
X98119047Y-141030799D01*
X98119047Y-141030799D02*
X98071428Y-140887942D01*
X98071428Y-140887942D02*
X98071428Y-140792704D01*
X98071428Y-140792704D02*
X98119047Y-140697466D01*
X98119047Y-140697466D02*
X98214285Y-140649847D01*
X98214285Y-140649847D02*
X98261904Y-140649847D01*
X98261904Y-140649847D02*
X98357142Y-140697466D01*
X98357142Y-140697466D02*
X98404761Y-140792704D01*
X98404761Y-140792704D02*
X98404761Y-140840323D01*
X98404761Y-140840323D02*
X98357142Y-140935561D01*
X98357142Y-140935561D02*
X98309523Y-140983180D01*
X98309523Y-140983180D02*
X98023809Y-141173656D01*
X98023809Y-141173656D02*
X97976190Y-141221275D01*
X97976190Y-141221275D02*
X97928571Y-141316513D01*
X97928571Y-141316513D02*
X97928571Y-141459370D01*
X97928571Y-141459370D02*
X97976190Y-141554608D01*
X97976190Y-141554608D02*
X98023809Y-141602228D01*
X98023809Y-141602228D02*
X98119047Y-141649847D01*
X98119047Y-141649847D02*
X98261904Y-141649847D01*
X98261904Y-141649847D02*
X98357142Y-141602228D01*
X98357142Y-141602228D02*
X98404761Y-141554608D01*
X98404761Y-141554608D02*
X98547618Y-141364132D01*
X98547618Y-141364132D02*
X98595237Y-141221275D01*
X98595237Y-141221275D02*
X98595237Y-141126037D01*
X99928571Y-141649847D02*
X99928571Y-140649847D01*
X99928571Y-140649847D02*
X100261904Y-141364132D01*
X100261904Y-141364132D02*
X100595237Y-140649847D01*
X100595237Y-140649847D02*
X100595237Y-141649847D01*
X101214285Y-141649847D02*
X101119047Y-141602228D01*
X101119047Y-141602228D02*
X101071428Y-141554608D01*
X101071428Y-141554608D02*
X101023809Y-141459370D01*
X101023809Y-141459370D02*
X101023809Y-141173656D01*
X101023809Y-141173656D02*
X101071428Y-141078418D01*
X101071428Y-141078418D02*
X101119047Y-141030799D01*
X101119047Y-141030799D02*
X101214285Y-140983180D01*
X101214285Y-140983180D02*
X101357142Y-140983180D01*
X101357142Y-140983180D02*
X101452380Y-141030799D01*
X101452380Y-141030799D02*
X101499999Y-141078418D01*
X101499999Y-141078418D02*
X101547618Y-141173656D01*
X101547618Y-141173656D02*
X101547618Y-141459370D01*
X101547618Y-141459370D02*
X101499999Y-141554608D01*
X101499999Y-141554608D02*
X101452380Y-141602228D01*
X101452380Y-141602228D02*
X101357142Y-141649847D01*
X101357142Y-141649847D02*
X101214285Y-141649847D01*
X101976190Y-140983180D02*
X101976190Y-141649847D01*
X101976190Y-141078418D02*
X102023809Y-141030799D01*
X102023809Y-141030799D02*
X102119047Y-140983180D01*
X102119047Y-140983180D02*
X102261904Y-140983180D01*
X102261904Y-140983180D02*
X102357142Y-141030799D01*
X102357142Y-141030799D02*
X102404761Y-141126037D01*
X102404761Y-141126037D02*
X102404761Y-141649847D01*
X102785714Y-140983180D02*
X103309523Y-140983180D01*
X103309523Y-140983180D02*
X102785714Y-141649847D01*
X102785714Y-141649847D02*
X103309523Y-141649847D01*
X104071428Y-141602228D02*
X103976190Y-141649847D01*
X103976190Y-141649847D02*
X103785714Y-141649847D01*
X103785714Y-141649847D02*
X103690476Y-141602228D01*
X103690476Y-141602228D02*
X103642857Y-141506989D01*
X103642857Y-141506989D02*
X103642857Y-141126037D01*
X103642857Y-141126037D02*
X103690476Y-141030799D01*
X103690476Y-141030799D02*
X103785714Y-140983180D01*
X103785714Y-140983180D02*
X103976190Y-140983180D01*
X103976190Y-140983180D02*
X104071428Y-141030799D01*
X104071428Y-141030799D02*
X104119047Y-141126037D01*
X104119047Y-141126037D02*
X104119047Y-141221275D01*
X104119047Y-141221275D02*
X103642857Y-141316513D01*
X104547619Y-141649847D02*
X104547619Y-140983180D01*
X104547619Y-141173656D02*
X104595238Y-141078418D01*
X104595238Y-141078418D02*
X104642857Y-141030799D01*
X104642857Y-141030799D02*
X104738095Y-140983180D01*
X104738095Y-140983180D02*
X104833333Y-140983180D01*
X97190476Y-143212172D02*
X97333333Y-143259791D01*
X97333333Y-143259791D02*
X97571428Y-143259791D01*
X97571428Y-143259791D02*
X97666666Y-143212172D01*
X97666666Y-143212172D02*
X97714285Y-143164552D01*
X97714285Y-143164552D02*
X97761904Y-143069314D01*
X97761904Y-143069314D02*
X97761904Y-142974076D01*
X97761904Y-142974076D02*
X97714285Y-142878838D01*
X97714285Y-142878838D02*
X97666666Y-142831219D01*
X97666666Y-142831219D02*
X97571428Y-142783600D01*
X97571428Y-142783600D02*
X97380952Y-142735981D01*
X97380952Y-142735981D02*
X97285714Y-142688362D01*
X97285714Y-142688362D02*
X97238095Y-142640743D01*
X97238095Y-142640743D02*
X97190476Y-142545505D01*
X97190476Y-142545505D02*
X97190476Y-142450267D01*
X97190476Y-142450267D02*
X97238095Y-142355029D01*
X97238095Y-142355029D02*
X97285714Y-142307410D01*
X97285714Y-142307410D02*
X97380952Y-142259791D01*
X97380952Y-142259791D02*
X97619047Y-142259791D01*
X97619047Y-142259791D02*
X97761904Y-142307410D01*
X98714285Y-142307410D02*
X98619047Y-142259791D01*
X98619047Y-142259791D02*
X98476190Y-142259791D01*
X98476190Y-142259791D02*
X98333333Y-142307410D01*
X98333333Y-142307410D02*
X98238095Y-142402648D01*
X98238095Y-142402648D02*
X98190476Y-142497886D01*
X98190476Y-142497886D02*
X98142857Y-142688362D01*
X98142857Y-142688362D02*
X98142857Y-142831219D01*
X98142857Y-142831219D02*
X98190476Y-143021695D01*
X98190476Y-143021695D02*
X98238095Y-143116933D01*
X98238095Y-143116933D02*
X98333333Y-143212172D01*
X98333333Y-143212172D02*
X98476190Y-143259791D01*
X98476190Y-143259791D02*
X98571428Y-143259791D01*
X98571428Y-143259791D02*
X98714285Y-143212172D01*
X98714285Y-143212172D02*
X98761904Y-143164552D01*
X98761904Y-143164552D02*
X98761904Y-142831219D01*
X98761904Y-142831219D02*
X98571428Y-142831219D01*
X99190476Y-142259791D02*
X99190476Y-143069314D01*
X99190476Y-143069314D02*
X99238095Y-143164552D01*
X99238095Y-143164552D02*
X99285714Y-143212172D01*
X99285714Y-143212172D02*
X99380952Y-143259791D01*
X99380952Y-143259791D02*
X99571428Y-143259791D01*
X99571428Y-143259791D02*
X99666666Y-143212172D01*
X99666666Y-143212172D02*
X99714285Y-143164552D01*
X99714285Y-143164552D02*
X99761904Y-143069314D01*
X99761904Y-143069314D02*
X99761904Y-142259791D01*
X139166666Y-92954819D02*
X139166666Y-93669104D01*
X139166666Y-93669104D02*
X139119047Y-93811961D01*
X139119047Y-93811961D02*
X139023809Y-93907200D01*
X139023809Y-93907200D02*
X138880952Y-93954819D01*
X138880952Y-93954819D02*
X138785714Y-93954819D01*
X139595238Y-93050057D02*
X139642857Y-93002438D01*
X139642857Y-93002438D02*
X139738095Y-92954819D01*
X139738095Y-92954819D02*
X139976190Y-92954819D01*
X139976190Y-92954819D02*
X140071428Y-93002438D01*
X140071428Y-93002438D02*
X140119047Y-93050057D01*
X140119047Y-93050057D02*
X140166666Y-93145295D01*
X140166666Y-93145295D02*
X140166666Y-93240533D01*
X140166666Y-93240533D02*
X140119047Y-93383390D01*
X140119047Y-93383390D02*
X139547619Y-93954819D01*
X139547619Y-93954819D02*
X140166666Y-93954819D01*
X167357143Y-95554819D02*
X167357143Y-94554819D01*
X167833333Y-95554819D02*
X167833333Y-94554819D01*
X167833333Y-94554819D02*
X168404761Y-95554819D01*
X168404761Y-95554819D02*
X168404761Y-94554819D01*
X168880952Y-95173866D02*
X169642857Y-95173866D01*
X169261904Y-95554819D02*
X169261904Y-94792914D01*
X167357143Y-127554819D02*
X167357143Y-126554819D01*
X167833333Y-127554819D02*
X167833333Y-126554819D01*
X167833333Y-126554819D02*
X168404761Y-127554819D01*
X168404761Y-127554819D02*
X168404761Y-126554819D01*
X168880952Y-127173866D02*
X169642857Y-127173866D01*
X159694819Y-115331904D02*
X160504342Y-115331904D01*
X160504342Y-115331904D02*
X160599580Y-115284285D01*
X160599580Y-115284285D02*
X160647200Y-115236666D01*
X160647200Y-115236666D02*
X160694819Y-115141428D01*
X160694819Y-115141428D02*
X160694819Y-114950952D01*
X160694819Y-114950952D02*
X160647200Y-114855714D01*
X160647200Y-114855714D02*
X160599580Y-114808095D01*
X160599580Y-114808095D02*
X160504342Y-114760476D01*
X160504342Y-114760476D02*
X159694819Y-114760476D01*
X159790057Y-114331904D02*
X159742438Y-114284285D01*
X159742438Y-114284285D02*
X159694819Y-114189047D01*
X159694819Y-114189047D02*
X159694819Y-113950952D01*
X159694819Y-113950952D02*
X159742438Y-113855714D01*
X159742438Y-113855714D02*
X159790057Y-113808095D01*
X159790057Y-113808095D02*
X159885295Y-113760476D01*
X159885295Y-113760476D02*
X159980533Y-113760476D01*
X159980533Y-113760476D02*
X160123390Y-113808095D01*
X160123390Y-113808095D02*
X160694819Y-114379523D01*
X160694819Y-114379523D02*
X160694819Y-113760476D01*
X153564286Y-145047200D02*
X153707143Y-145094819D01*
X153707143Y-145094819D02*
X153945238Y-145094819D01*
X153945238Y-145094819D02*
X154040476Y-145047200D01*
X154040476Y-145047200D02*
X154088095Y-144999580D01*
X154088095Y-144999580D02*
X154135714Y-144904342D01*
X154135714Y-144904342D02*
X154135714Y-144809104D01*
X154135714Y-144809104D02*
X154088095Y-144713866D01*
X154088095Y-144713866D02*
X154040476Y-144666247D01*
X154040476Y-144666247D02*
X153945238Y-144618628D01*
X153945238Y-144618628D02*
X153754762Y-144571009D01*
X153754762Y-144571009D02*
X153659524Y-144523390D01*
X153659524Y-144523390D02*
X153611905Y-144475771D01*
X153611905Y-144475771D02*
X153564286Y-144380533D01*
X153564286Y-144380533D02*
X153564286Y-144285295D01*
X153564286Y-144285295D02*
X153611905Y-144190057D01*
X153611905Y-144190057D02*
X153659524Y-144142438D01*
X153659524Y-144142438D02*
X153754762Y-144094819D01*
X153754762Y-144094819D02*
X153992857Y-144094819D01*
X153992857Y-144094819D02*
X154135714Y-144142438D01*
X154469048Y-144094819D02*
X154707143Y-145094819D01*
X154707143Y-145094819D02*
X154897619Y-144380533D01*
X154897619Y-144380533D02*
X155088095Y-145094819D01*
X155088095Y-145094819D02*
X155326191Y-144094819D01*
X155469048Y-145190057D02*
X156230952Y-145190057D01*
X156469048Y-145094819D02*
X156469048Y-144094819D01*
X156469048Y-144094819D02*
X156802381Y-144809104D01*
X156802381Y-144809104D02*
X157135714Y-144094819D01*
X157135714Y-144094819D02*
X157135714Y-145094819D01*
X158135714Y-144142438D02*
X158040476Y-144094819D01*
X158040476Y-144094819D02*
X157897619Y-144094819D01*
X157897619Y-144094819D02*
X157754762Y-144142438D01*
X157754762Y-144142438D02*
X157659524Y-144237676D01*
X157659524Y-144237676D02*
X157611905Y-144332914D01*
X157611905Y-144332914D02*
X157564286Y-144523390D01*
X157564286Y-144523390D02*
X157564286Y-144666247D01*
X157564286Y-144666247D02*
X157611905Y-144856723D01*
X157611905Y-144856723D02*
X157659524Y-144951961D01*
X157659524Y-144951961D02*
X157754762Y-145047200D01*
X157754762Y-145047200D02*
X157897619Y-145094819D01*
X157897619Y-145094819D02*
X157992857Y-145094819D01*
X157992857Y-145094819D02*
X158135714Y-145047200D01*
X158135714Y-145047200D02*
X158183333Y-144999580D01*
X158183333Y-144999580D02*
X158183333Y-144666247D01*
X158183333Y-144666247D02*
X157992857Y-144666247D01*
X159040476Y-144428152D02*
X159040476Y-145094819D01*
X158802381Y-144047200D02*
X158564286Y-144761485D01*
X158564286Y-144761485D02*
X159183333Y-144761485D01*
X142214286Y-145407200D02*
X142357143Y-145454819D01*
X142357143Y-145454819D02*
X142595238Y-145454819D01*
X142595238Y-145454819D02*
X142690476Y-145407200D01*
X142690476Y-145407200D02*
X142738095Y-145359580D01*
X142738095Y-145359580D02*
X142785714Y-145264342D01*
X142785714Y-145264342D02*
X142785714Y-145169104D01*
X142785714Y-145169104D02*
X142738095Y-145073866D01*
X142738095Y-145073866D02*
X142690476Y-145026247D01*
X142690476Y-145026247D02*
X142595238Y-144978628D01*
X142595238Y-144978628D02*
X142404762Y-144931009D01*
X142404762Y-144931009D02*
X142309524Y-144883390D01*
X142309524Y-144883390D02*
X142261905Y-144835771D01*
X142261905Y-144835771D02*
X142214286Y-144740533D01*
X142214286Y-144740533D02*
X142214286Y-144645295D01*
X142214286Y-144645295D02*
X142261905Y-144550057D01*
X142261905Y-144550057D02*
X142309524Y-144502438D01*
X142309524Y-144502438D02*
X142404762Y-144454819D01*
X142404762Y-144454819D02*
X142642857Y-144454819D01*
X142642857Y-144454819D02*
X142785714Y-144502438D01*
X143119048Y-144454819D02*
X143357143Y-145454819D01*
X143357143Y-145454819D02*
X143547619Y-144740533D01*
X143547619Y-144740533D02*
X143738095Y-145454819D01*
X143738095Y-145454819D02*
X143976191Y-144454819D01*
X144119048Y-145550057D02*
X144880952Y-145550057D01*
X145119048Y-145454819D02*
X145119048Y-144454819D01*
X145119048Y-144454819D02*
X145452381Y-145169104D01*
X145452381Y-145169104D02*
X145785714Y-144454819D01*
X145785714Y-144454819D02*
X145785714Y-145454819D01*
X146785714Y-144502438D02*
X146690476Y-144454819D01*
X146690476Y-144454819D02*
X146547619Y-144454819D01*
X146547619Y-144454819D02*
X146404762Y-144502438D01*
X146404762Y-144502438D02*
X146309524Y-144597676D01*
X146309524Y-144597676D02*
X146261905Y-144692914D01*
X146261905Y-144692914D02*
X146214286Y-144883390D01*
X146214286Y-144883390D02*
X146214286Y-145026247D01*
X146214286Y-145026247D02*
X146261905Y-145216723D01*
X146261905Y-145216723D02*
X146309524Y-145311961D01*
X146309524Y-145311961D02*
X146404762Y-145407200D01*
X146404762Y-145407200D02*
X146547619Y-145454819D01*
X146547619Y-145454819D02*
X146642857Y-145454819D01*
X146642857Y-145454819D02*
X146785714Y-145407200D01*
X146785714Y-145407200D02*
X146833333Y-145359580D01*
X146833333Y-145359580D02*
X146833333Y-145026247D01*
X146833333Y-145026247D02*
X146642857Y-145026247D01*
X147166667Y-144454819D02*
X147785714Y-144454819D01*
X147785714Y-144454819D02*
X147452381Y-144835771D01*
X147452381Y-144835771D02*
X147595238Y-144835771D01*
X147595238Y-144835771D02*
X147690476Y-144883390D01*
X147690476Y-144883390D02*
X147738095Y-144931009D01*
X147738095Y-144931009D02*
X147785714Y-145026247D01*
X147785714Y-145026247D02*
X147785714Y-145264342D01*
X147785714Y-145264342D02*
X147738095Y-145359580D01*
X147738095Y-145359580D02*
X147690476Y-145407200D01*
X147690476Y-145407200D02*
X147595238Y-145454819D01*
X147595238Y-145454819D02*
X147309524Y-145454819D01*
X147309524Y-145454819D02*
X147214286Y-145407200D01*
X147214286Y-145407200D02*
X147166667Y-145359580D01*
X132056667Y-145047200D02*
X132199524Y-145094819D01*
X132199524Y-145094819D02*
X132437619Y-145094819D01*
X132437619Y-145094819D02*
X132532857Y-145047200D01*
X132532857Y-145047200D02*
X132580476Y-144999580D01*
X132580476Y-144999580D02*
X132628095Y-144904342D01*
X132628095Y-144904342D02*
X132628095Y-144809104D01*
X132628095Y-144809104D02*
X132580476Y-144713866D01*
X132580476Y-144713866D02*
X132532857Y-144666247D01*
X132532857Y-144666247D02*
X132437619Y-144618628D01*
X132437619Y-144618628D02*
X132247143Y-144571009D01*
X132247143Y-144571009D02*
X132151905Y-144523390D01*
X132151905Y-144523390D02*
X132104286Y-144475771D01*
X132104286Y-144475771D02*
X132056667Y-144380533D01*
X132056667Y-144380533D02*
X132056667Y-144285295D01*
X132056667Y-144285295D02*
X132104286Y-144190057D01*
X132104286Y-144190057D02*
X132151905Y-144142438D01*
X132151905Y-144142438D02*
X132247143Y-144094819D01*
X132247143Y-144094819D02*
X132485238Y-144094819D01*
X132485238Y-144094819D02*
X132628095Y-144142438D01*
X132961429Y-144094819D02*
X133199524Y-145094819D01*
X133199524Y-145094819D02*
X133390000Y-144380533D01*
X133390000Y-144380533D02*
X133580476Y-145094819D01*
X133580476Y-145094819D02*
X133818572Y-144094819D01*
X134151905Y-144190057D02*
X134199524Y-144142438D01*
X134199524Y-144142438D02*
X134294762Y-144094819D01*
X134294762Y-144094819D02*
X134532857Y-144094819D01*
X134532857Y-144094819D02*
X134628095Y-144142438D01*
X134628095Y-144142438D02*
X134675714Y-144190057D01*
X134675714Y-144190057D02*
X134723333Y-144285295D01*
X134723333Y-144285295D02*
X134723333Y-144380533D01*
X134723333Y-144380533D02*
X134675714Y-144523390D01*
X134675714Y-144523390D02*
X134104286Y-145094819D01*
X134104286Y-145094819D02*
X134723333Y-145094819D01*
X120806667Y-145047200D02*
X120949524Y-145094819D01*
X120949524Y-145094819D02*
X121187619Y-145094819D01*
X121187619Y-145094819D02*
X121282857Y-145047200D01*
X121282857Y-145047200D02*
X121330476Y-144999580D01*
X121330476Y-144999580D02*
X121378095Y-144904342D01*
X121378095Y-144904342D02*
X121378095Y-144809104D01*
X121378095Y-144809104D02*
X121330476Y-144713866D01*
X121330476Y-144713866D02*
X121282857Y-144666247D01*
X121282857Y-144666247D02*
X121187619Y-144618628D01*
X121187619Y-144618628D02*
X120997143Y-144571009D01*
X120997143Y-144571009D02*
X120901905Y-144523390D01*
X120901905Y-144523390D02*
X120854286Y-144475771D01*
X120854286Y-144475771D02*
X120806667Y-144380533D01*
X120806667Y-144380533D02*
X120806667Y-144285295D01*
X120806667Y-144285295D02*
X120854286Y-144190057D01*
X120854286Y-144190057D02*
X120901905Y-144142438D01*
X120901905Y-144142438D02*
X120997143Y-144094819D01*
X120997143Y-144094819D02*
X121235238Y-144094819D01*
X121235238Y-144094819D02*
X121378095Y-144142438D01*
X121711429Y-144094819D02*
X121949524Y-145094819D01*
X121949524Y-145094819D02*
X122140000Y-144380533D01*
X122140000Y-144380533D02*
X122330476Y-145094819D01*
X122330476Y-145094819D02*
X122568572Y-144094819D01*
X123473333Y-145094819D02*
X122901905Y-145094819D01*
X123187619Y-145094819D02*
X123187619Y-144094819D01*
X123187619Y-144094819D02*
X123092381Y-144237676D01*
X123092381Y-144237676D02*
X122997143Y-144332914D01*
X122997143Y-144332914D02*
X122901905Y-144380533D01*
X108880952Y-94554819D02*
X109071428Y-94554819D01*
X109071428Y-94554819D02*
X109166666Y-94602438D01*
X109166666Y-94602438D02*
X109261904Y-94697676D01*
X109261904Y-94697676D02*
X109309523Y-94888152D01*
X109309523Y-94888152D02*
X109309523Y-95221485D01*
X109309523Y-95221485D02*
X109261904Y-95411961D01*
X109261904Y-95411961D02*
X109166666Y-95507200D01*
X109166666Y-95507200D02*
X109071428Y-95554819D01*
X109071428Y-95554819D02*
X108880952Y-95554819D01*
X108880952Y-95554819D02*
X108785714Y-95507200D01*
X108785714Y-95507200D02*
X108690476Y-95411961D01*
X108690476Y-95411961D02*
X108642857Y-95221485D01*
X108642857Y-95221485D02*
X108642857Y-94888152D01*
X108642857Y-94888152D02*
X108690476Y-94697676D01*
X108690476Y-94697676D02*
X108785714Y-94602438D01*
X108785714Y-94602438D02*
X108880952Y-94554819D01*
X109738095Y-94554819D02*
X109738095Y-95364342D01*
X109738095Y-95364342D02*
X109785714Y-95459580D01*
X109785714Y-95459580D02*
X109833333Y-95507200D01*
X109833333Y-95507200D02*
X109928571Y-95554819D01*
X109928571Y-95554819D02*
X110119047Y-95554819D01*
X110119047Y-95554819D02*
X110214285Y-95507200D01*
X110214285Y-95507200D02*
X110261904Y-95459580D01*
X110261904Y-95459580D02*
X110309523Y-95364342D01*
X110309523Y-95364342D02*
X110309523Y-94554819D01*
X110642857Y-94554819D02*
X111214285Y-94554819D01*
X110928571Y-95554819D02*
X110928571Y-94554819D01*
X111547619Y-95173866D02*
X112309524Y-95173866D01*
X111928571Y-95554819D02*
X111928571Y-94792914D01*
X108880952Y-126554819D02*
X109071428Y-126554819D01*
X109071428Y-126554819D02*
X109166666Y-126602438D01*
X109166666Y-126602438D02*
X109261904Y-126697676D01*
X109261904Y-126697676D02*
X109309523Y-126888152D01*
X109309523Y-126888152D02*
X109309523Y-127221485D01*
X109309523Y-127221485D02*
X109261904Y-127411961D01*
X109261904Y-127411961D02*
X109166666Y-127507200D01*
X109166666Y-127507200D02*
X109071428Y-127554819D01*
X109071428Y-127554819D02*
X108880952Y-127554819D01*
X108880952Y-127554819D02*
X108785714Y-127507200D01*
X108785714Y-127507200D02*
X108690476Y-127411961D01*
X108690476Y-127411961D02*
X108642857Y-127221485D01*
X108642857Y-127221485D02*
X108642857Y-126888152D01*
X108642857Y-126888152D02*
X108690476Y-126697676D01*
X108690476Y-126697676D02*
X108785714Y-126602438D01*
X108785714Y-126602438D02*
X108880952Y-126554819D01*
X109738095Y-126554819D02*
X109738095Y-127364342D01*
X109738095Y-127364342D02*
X109785714Y-127459580D01*
X109785714Y-127459580D02*
X109833333Y-127507200D01*
X109833333Y-127507200D02*
X109928571Y-127554819D01*
X109928571Y-127554819D02*
X110119047Y-127554819D01*
X110119047Y-127554819D02*
X110214285Y-127507200D01*
X110214285Y-127507200D02*
X110261904Y-127459580D01*
X110261904Y-127459580D02*
X110309523Y-127364342D01*
X110309523Y-127364342D02*
X110309523Y-126554819D01*
X110642857Y-126554819D02*
X111214285Y-126554819D01*
X110928571Y-127554819D02*
X110928571Y-126554819D01*
X111547619Y-127173866D02*
X112309524Y-127173866D01*
X94954819Y-120090952D02*
X93954819Y-120090952D01*
X93954819Y-120090952D02*
X93954819Y-119710000D01*
X93954819Y-119710000D02*
X94002438Y-119614762D01*
X94002438Y-119614762D02*
X94050057Y-119567143D01*
X94050057Y-119567143D02*
X94145295Y-119519524D01*
X94145295Y-119519524D02*
X94288152Y-119519524D01*
X94288152Y-119519524D02*
X94383390Y-119567143D01*
X94383390Y-119567143D02*
X94431009Y-119614762D01*
X94431009Y-119614762D02*
X94478628Y-119710000D01*
X94478628Y-119710000D02*
X94478628Y-120090952D01*
X94954819Y-118948095D02*
X94907200Y-119043333D01*
X94907200Y-119043333D02*
X94859580Y-119090952D01*
X94859580Y-119090952D02*
X94764342Y-119138571D01*
X94764342Y-119138571D02*
X94478628Y-119138571D01*
X94478628Y-119138571D02*
X94383390Y-119090952D01*
X94383390Y-119090952D02*
X94335771Y-119043333D01*
X94335771Y-119043333D02*
X94288152Y-118948095D01*
X94288152Y-118948095D02*
X94288152Y-118805238D01*
X94288152Y-118805238D02*
X94335771Y-118710000D01*
X94335771Y-118710000D02*
X94383390Y-118662381D01*
X94383390Y-118662381D02*
X94478628Y-118614762D01*
X94478628Y-118614762D02*
X94764342Y-118614762D01*
X94764342Y-118614762D02*
X94859580Y-118662381D01*
X94859580Y-118662381D02*
X94907200Y-118710000D01*
X94907200Y-118710000D02*
X94954819Y-118805238D01*
X94954819Y-118805238D02*
X94954819Y-118948095D01*
X94288152Y-118281428D02*
X94954819Y-118090952D01*
X94954819Y-118090952D02*
X94478628Y-117900476D01*
X94478628Y-117900476D02*
X94954819Y-117710000D01*
X94954819Y-117710000D02*
X94288152Y-117519524D01*
X94907200Y-116757619D02*
X94954819Y-116852857D01*
X94954819Y-116852857D02*
X94954819Y-117043333D01*
X94954819Y-117043333D02*
X94907200Y-117138571D01*
X94907200Y-117138571D02*
X94811961Y-117186190D01*
X94811961Y-117186190D02*
X94431009Y-117186190D01*
X94431009Y-117186190D02*
X94335771Y-117138571D01*
X94335771Y-117138571D02*
X94288152Y-117043333D01*
X94288152Y-117043333D02*
X94288152Y-116852857D01*
X94288152Y-116852857D02*
X94335771Y-116757619D01*
X94335771Y-116757619D02*
X94431009Y-116710000D01*
X94431009Y-116710000D02*
X94526247Y-116710000D01*
X94526247Y-116710000D02*
X94621485Y-117186190D01*
X94954819Y-116281428D02*
X94288152Y-116281428D01*
X94478628Y-116281428D02*
X94383390Y-116233809D01*
X94383390Y-116233809D02*
X94335771Y-116186190D01*
X94335771Y-116186190D02*
X94288152Y-116090952D01*
X94288152Y-116090952D02*
X94288152Y-115995714D01*
X95050057Y-115900476D02*
X95050057Y-115138571D01*
X94907200Y-114948094D02*
X94954819Y-114805237D01*
X94954819Y-114805237D02*
X94954819Y-114567142D01*
X94954819Y-114567142D02*
X94907200Y-114471904D01*
X94907200Y-114471904D02*
X94859580Y-114424285D01*
X94859580Y-114424285D02*
X94764342Y-114376666D01*
X94764342Y-114376666D02*
X94669104Y-114376666D01*
X94669104Y-114376666D02*
X94573866Y-114424285D01*
X94573866Y-114424285D02*
X94526247Y-114471904D01*
X94526247Y-114471904D02*
X94478628Y-114567142D01*
X94478628Y-114567142D02*
X94431009Y-114757618D01*
X94431009Y-114757618D02*
X94383390Y-114852856D01*
X94383390Y-114852856D02*
X94335771Y-114900475D01*
X94335771Y-114900475D02*
X94240533Y-114948094D01*
X94240533Y-114948094D02*
X94145295Y-114948094D01*
X94145295Y-114948094D02*
X94050057Y-114900475D01*
X94050057Y-114900475D02*
X94002438Y-114852856D01*
X94002438Y-114852856D02*
X93954819Y-114757618D01*
X93954819Y-114757618D02*
X93954819Y-114519523D01*
X93954819Y-114519523D02*
X94002438Y-114376666D01*
X94954819Y-113805237D02*
X94907200Y-113900475D01*
X94907200Y-113900475D02*
X94859580Y-113948094D01*
X94859580Y-113948094D02*
X94764342Y-113995713D01*
X94764342Y-113995713D02*
X94478628Y-113995713D01*
X94478628Y-113995713D02*
X94383390Y-113948094D01*
X94383390Y-113948094D02*
X94335771Y-113900475D01*
X94335771Y-113900475D02*
X94288152Y-113805237D01*
X94288152Y-113805237D02*
X94288152Y-113662380D01*
X94288152Y-113662380D02*
X94335771Y-113567142D01*
X94335771Y-113567142D02*
X94383390Y-113519523D01*
X94383390Y-113519523D02*
X94478628Y-113471904D01*
X94478628Y-113471904D02*
X94764342Y-113471904D01*
X94764342Y-113471904D02*
X94859580Y-113519523D01*
X94859580Y-113519523D02*
X94907200Y-113567142D01*
X94907200Y-113567142D02*
X94954819Y-113662380D01*
X94954819Y-113662380D02*
X94954819Y-113805237D01*
X94288152Y-112614761D02*
X94954819Y-112614761D01*
X94288152Y-113043332D02*
X94811961Y-113043332D01*
X94811961Y-113043332D02*
X94907200Y-112995713D01*
X94907200Y-112995713D02*
X94954819Y-112900475D01*
X94954819Y-112900475D02*
X94954819Y-112757618D01*
X94954819Y-112757618D02*
X94907200Y-112662380D01*
X94907200Y-112662380D02*
X94859580Y-112614761D01*
X94954819Y-112138570D02*
X94288152Y-112138570D01*
X94478628Y-112138570D02*
X94383390Y-112090951D01*
X94383390Y-112090951D02*
X94335771Y-112043332D01*
X94335771Y-112043332D02*
X94288152Y-111948094D01*
X94288152Y-111948094D02*
X94288152Y-111852856D01*
X94907200Y-111090951D02*
X94954819Y-111186189D01*
X94954819Y-111186189D02*
X94954819Y-111376665D01*
X94954819Y-111376665D02*
X94907200Y-111471903D01*
X94907200Y-111471903D02*
X94859580Y-111519522D01*
X94859580Y-111519522D02*
X94764342Y-111567141D01*
X94764342Y-111567141D02*
X94478628Y-111567141D01*
X94478628Y-111567141D02*
X94383390Y-111519522D01*
X94383390Y-111519522D02*
X94335771Y-111471903D01*
X94335771Y-111471903D02*
X94288152Y-111376665D01*
X94288152Y-111376665D02*
X94288152Y-111186189D01*
X94288152Y-111186189D02*
X94335771Y-111090951D01*
X94907200Y-110281427D02*
X94954819Y-110376665D01*
X94954819Y-110376665D02*
X94954819Y-110567141D01*
X94954819Y-110567141D02*
X94907200Y-110662379D01*
X94907200Y-110662379D02*
X94811961Y-110709998D01*
X94811961Y-110709998D02*
X94431009Y-110709998D01*
X94431009Y-110709998D02*
X94335771Y-110662379D01*
X94335771Y-110662379D02*
X94288152Y-110567141D01*
X94288152Y-110567141D02*
X94288152Y-110376665D01*
X94288152Y-110376665D02*
X94335771Y-110281427D01*
X94335771Y-110281427D02*
X94431009Y-110233808D01*
X94431009Y-110233808D02*
X94526247Y-110233808D01*
X94526247Y-110233808D02*
X94621485Y-110709998D01*
X94954819Y-109281427D02*
X94954819Y-109852855D01*
X94954819Y-109567141D02*
X93954819Y-109567141D01*
X93954819Y-109567141D02*
X94097676Y-109662379D01*
X94097676Y-109662379D02*
X94192914Y-109757617D01*
X94192914Y-109757617D02*
X94240533Y-109852855D01*
X176309523Y-119697200D02*
X176452380Y-119744819D01*
X176452380Y-119744819D02*
X176690475Y-119744819D01*
X176690475Y-119744819D02*
X176785713Y-119697200D01*
X176785713Y-119697200D02*
X176833332Y-119649580D01*
X176833332Y-119649580D02*
X176880951Y-119554342D01*
X176880951Y-119554342D02*
X176880951Y-119459104D01*
X176880951Y-119459104D02*
X176833332Y-119363866D01*
X176833332Y-119363866D02*
X176785713Y-119316247D01*
X176785713Y-119316247D02*
X176690475Y-119268628D01*
X176690475Y-119268628D02*
X176499999Y-119221009D01*
X176499999Y-119221009D02*
X176404761Y-119173390D01*
X176404761Y-119173390D02*
X176357142Y-119125771D01*
X176357142Y-119125771D02*
X176309523Y-119030533D01*
X176309523Y-119030533D02*
X176309523Y-118935295D01*
X176309523Y-118935295D02*
X176357142Y-118840057D01*
X176357142Y-118840057D02*
X176404761Y-118792438D01*
X176404761Y-118792438D02*
X176499999Y-118744819D01*
X176499999Y-118744819D02*
X176738094Y-118744819D01*
X176738094Y-118744819D02*
X176880951Y-118792438D01*
X177452380Y-119744819D02*
X177357142Y-119697200D01*
X177357142Y-119697200D02*
X177309523Y-119649580D01*
X177309523Y-119649580D02*
X177261904Y-119554342D01*
X177261904Y-119554342D02*
X177261904Y-119268628D01*
X177261904Y-119268628D02*
X177309523Y-119173390D01*
X177309523Y-119173390D02*
X177357142Y-119125771D01*
X177357142Y-119125771D02*
X177452380Y-119078152D01*
X177452380Y-119078152D02*
X177595237Y-119078152D01*
X177595237Y-119078152D02*
X177690475Y-119125771D01*
X177690475Y-119125771D02*
X177738094Y-119173390D01*
X177738094Y-119173390D02*
X177785713Y-119268628D01*
X177785713Y-119268628D02*
X177785713Y-119554342D01*
X177785713Y-119554342D02*
X177738094Y-119649580D01*
X177738094Y-119649580D02*
X177690475Y-119697200D01*
X177690475Y-119697200D02*
X177595237Y-119744819D01*
X177595237Y-119744819D02*
X177452380Y-119744819D01*
X178357142Y-119744819D02*
X178261904Y-119697200D01*
X178261904Y-119697200D02*
X178214285Y-119601961D01*
X178214285Y-119601961D02*
X178214285Y-118744819D01*
X179166666Y-119744819D02*
X179166666Y-119221009D01*
X179166666Y-119221009D02*
X179119047Y-119125771D01*
X179119047Y-119125771D02*
X179023809Y-119078152D01*
X179023809Y-119078152D02*
X178833333Y-119078152D01*
X178833333Y-119078152D02*
X178738095Y-119125771D01*
X179166666Y-119697200D02*
X179071428Y-119744819D01*
X179071428Y-119744819D02*
X178833333Y-119744819D01*
X178833333Y-119744819D02*
X178738095Y-119697200D01*
X178738095Y-119697200D02*
X178690476Y-119601961D01*
X178690476Y-119601961D02*
X178690476Y-119506723D01*
X178690476Y-119506723D02*
X178738095Y-119411485D01*
X178738095Y-119411485D02*
X178833333Y-119363866D01*
X178833333Y-119363866D02*
X179071428Y-119363866D01*
X179071428Y-119363866D02*
X179166666Y-119316247D01*
X179642857Y-119744819D02*
X179642857Y-119078152D01*
X179642857Y-119268628D02*
X179690476Y-119173390D01*
X179690476Y-119173390D02*
X179738095Y-119125771D01*
X179738095Y-119125771D02*
X179833333Y-119078152D01*
X179833333Y-119078152D02*
X179928571Y-119078152D01*
X180023810Y-119840057D02*
X180785714Y-119840057D01*
X180976191Y-119697200D02*
X181119048Y-119744819D01*
X181119048Y-119744819D02*
X181357143Y-119744819D01*
X181357143Y-119744819D02*
X181452381Y-119697200D01*
X181452381Y-119697200D02*
X181500000Y-119649580D01*
X181500000Y-119649580D02*
X181547619Y-119554342D01*
X181547619Y-119554342D02*
X181547619Y-119459104D01*
X181547619Y-119459104D02*
X181500000Y-119363866D01*
X181500000Y-119363866D02*
X181452381Y-119316247D01*
X181452381Y-119316247D02*
X181357143Y-119268628D01*
X181357143Y-119268628D02*
X181166667Y-119221009D01*
X181166667Y-119221009D02*
X181071429Y-119173390D01*
X181071429Y-119173390D02*
X181023810Y-119125771D01*
X181023810Y-119125771D02*
X180976191Y-119030533D01*
X180976191Y-119030533D02*
X180976191Y-118935295D01*
X180976191Y-118935295D02*
X181023810Y-118840057D01*
X181023810Y-118840057D02*
X181071429Y-118792438D01*
X181071429Y-118792438D02*
X181166667Y-118744819D01*
X181166667Y-118744819D02*
X181404762Y-118744819D01*
X181404762Y-118744819D02*
X181547619Y-118792438D01*
X182119048Y-119744819D02*
X182023810Y-119697200D01*
X182023810Y-119697200D02*
X181976191Y-119649580D01*
X181976191Y-119649580D02*
X181928572Y-119554342D01*
X181928572Y-119554342D02*
X181928572Y-119268628D01*
X181928572Y-119268628D02*
X181976191Y-119173390D01*
X181976191Y-119173390D02*
X182023810Y-119125771D01*
X182023810Y-119125771D02*
X182119048Y-119078152D01*
X182119048Y-119078152D02*
X182261905Y-119078152D01*
X182261905Y-119078152D02*
X182357143Y-119125771D01*
X182357143Y-119125771D02*
X182404762Y-119173390D01*
X182404762Y-119173390D02*
X182452381Y-119268628D01*
X182452381Y-119268628D02*
X182452381Y-119554342D01*
X182452381Y-119554342D02*
X182404762Y-119649580D01*
X182404762Y-119649580D02*
X182357143Y-119697200D01*
X182357143Y-119697200D02*
X182261905Y-119744819D01*
X182261905Y-119744819D02*
X182119048Y-119744819D01*
X183309524Y-119078152D02*
X183309524Y-119744819D01*
X182880953Y-119078152D02*
X182880953Y-119601961D01*
X182880953Y-119601961D02*
X182928572Y-119697200D01*
X182928572Y-119697200D02*
X183023810Y-119744819D01*
X183023810Y-119744819D02*
X183166667Y-119744819D01*
X183166667Y-119744819D02*
X183261905Y-119697200D01*
X183261905Y-119697200D02*
X183309524Y-119649580D01*
X183785715Y-119744819D02*
X183785715Y-119078152D01*
X183785715Y-119268628D02*
X183833334Y-119173390D01*
X183833334Y-119173390D02*
X183880953Y-119125771D01*
X183880953Y-119125771D02*
X183976191Y-119078152D01*
X183976191Y-119078152D02*
X184071429Y-119078152D01*
X184833334Y-119697200D02*
X184738096Y-119744819D01*
X184738096Y-119744819D02*
X184547620Y-119744819D01*
X184547620Y-119744819D02*
X184452382Y-119697200D01*
X184452382Y-119697200D02*
X184404763Y-119649580D01*
X184404763Y-119649580D02*
X184357144Y-119554342D01*
X184357144Y-119554342D02*
X184357144Y-119268628D01*
X184357144Y-119268628D02*
X184404763Y-119173390D01*
X184404763Y-119173390D02*
X184452382Y-119125771D01*
X184452382Y-119125771D02*
X184547620Y-119078152D01*
X184547620Y-119078152D02*
X184738096Y-119078152D01*
X184738096Y-119078152D02*
X184833334Y-119125771D01*
X185642858Y-119697200D02*
X185547620Y-119744819D01*
X185547620Y-119744819D02*
X185357144Y-119744819D01*
X185357144Y-119744819D02*
X185261906Y-119697200D01*
X185261906Y-119697200D02*
X185214287Y-119601961D01*
X185214287Y-119601961D02*
X185214287Y-119221009D01*
X185214287Y-119221009D02*
X185261906Y-119125771D01*
X185261906Y-119125771D02*
X185357144Y-119078152D01*
X185357144Y-119078152D02*
X185547620Y-119078152D01*
X185547620Y-119078152D02*
X185642858Y-119125771D01*
X185642858Y-119125771D02*
X185690477Y-119221009D01*
X185690477Y-119221009D02*
X185690477Y-119316247D01*
X185690477Y-119316247D02*
X185214287Y-119411485D01*
D11*
%TO.C,J2*%
X130550000Y-95370000D02*
X130550000Y-98030000D01*
X145850000Y-95370000D02*
X130550000Y-95370000D01*
X145850000Y-95370000D02*
X145850000Y-98030000D01*
X145850000Y-98030000D02*
X130550000Y-98030000D01*
X148450000Y-96700000D02*
X148450000Y-98030000D01*
X148450000Y-98030000D02*
X147120000Y-98030000D01*
%TO.C,U2*%
X120460000Y-101870000D02*
X159380000Y-101870000D01*
X120460000Y-127270000D02*
X120460000Y-101870000D01*
X159380000Y-101870000D02*
X159380000Y-127270000D01*
X159380000Y-127270000D02*
X120460000Y-127270000D01*
%TO.C,SW_MG4*%
X153770000Y-140285000D02*
X155100000Y-140285000D01*
X153770000Y-141615000D02*
X153770000Y-140285000D01*
X156370000Y-140285000D02*
X158970000Y-140285000D01*
X156370000Y-142945000D02*
X156370000Y-140285000D01*
X156370000Y-142945000D02*
X158970000Y-142945000D01*
X158970000Y-142945000D02*
X158970000Y-140285000D01*
%TO.C,SW_MG3*%
X142310000Y-140310000D02*
X143640000Y-140310000D01*
X142310000Y-141640000D02*
X142310000Y-140310000D01*
X144910000Y-140310000D02*
X147510000Y-140310000D01*
X144910000Y-142970000D02*
X144910000Y-140310000D01*
X144910000Y-142970000D02*
X147510000Y-142970000D01*
X147510000Y-142970000D02*
X147510000Y-140310000D01*
%TO.C,SW2*%
X130810000Y-140310000D02*
X132140000Y-140310000D01*
X130810000Y-141640000D02*
X130810000Y-140310000D01*
X133410000Y-140310000D02*
X136010000Y-140310000D01*
X133410000Y-142970000D02*
X133410000Y-140310000D01*
X133410000Y-142970000D02*
X136010000Y-142970000D01*
X136010000Y-142970000D02*
X136010000Y-140310000D01*
%TO.C,SW1*%
X124470000Y-142970000D02*
X124470000Y-140310000D01*
X121870000Y-142970000D02*
X124470000Y-142970000D01*
X121870000Y-142970000D02*
X121870000Y-140310000D01*
X121870000Y-140310000D02*
X124470000Y-140310000D01*
X119270000Y-141640000D02*
X119270000Y-140310000D01*
X119270000Y-140310000D02*
X120600000Y-140310000D01*
%TO.C,Power_Source1*%
X96670000Y-115230000D02*
X96670000Y-117830000D01*
X96670000Y-115230000D02*
X99330000Y-115230000D01*
X96670000Y-117830000D02*
X99330000Y-117830000D01*
X98000000Y-112630000D02*
X99330000Y-112630000D01*
X99330000Y-112630000D02*
X99330000Y-113960000D01*
X99330000Y-115230000D02*
X99330000Y-117830000D01*
%TO.C,Solar_Source*%
X179645000Y-115270000D02*
X179645000Y-112670000D01*
X179645000Y-117870000D02*
X179645000Y-116540000D01*
X180975000Y-117870000D02*
X179645000Y-117870000D01*
X182305000Y-112670000D02*
X179645000Y-112670000D01*
X182305000Y-115270000D02*
X179645000Y-115270000D01*
X182305000Y-115270000D02*
X182305000Y-112670000D01*
%TD*%
M02*
